<svg xmlns="http://www.w3.org/2000/svg" width="580" height="190" version="1.1">
    <defs>
        <marker id="markerArrow" markerHeight="7" markerWidth="17" orient="auto" refX="0" refY="3.5">
            <path fill="none" stroke="black" stroke-width="1" d="M1,6 L16,3.5 L1,1 L1,6"/>
        </marker>
    </defs>
    <line x1="10" x2="560" y1="160" y2="160" stroke="black" stroke-width="1" marker-end="url(#markerArrow)"/>
    <line x1="10" x2="10" y1="160" y2="20" stroke="black" stroke-width="1" marker-end="url(#markerArrow)"/>
    <line x1="10" x2="10" y1="155" y2="165" stroke="black" stroke-width="1"/>
    <line x1="7" x2="7" y1="155" y2="165" stroke="black" stroke-width="1"/>
    <line x1="13" x2="13" y1="155" y2="165" stroke="black" stroke-width="1"/>
    <line x1="110" x2="110" y1="155" y2="165" stroke="black" stroke-width="1"/>
    <line x1="210" x2="210" y1="155" y2="165" stroke="black" stroke-width="1"/>
    <line x1="310" x2="310" y1="155" y2="165" stroke="black" stroke-width="1"/>
    <line x1="408" x2="408" y1="155" y2="165" stroke="black" stroke-width="1"/>
    <line x1="412" x2="412" y1="155" y2="165" stroke="black" stroke-width="1"/>
    <line x1="510" x2="510" y1="155" y2="165" stroke="black" stroke-width="1"/>
    <line x1="507" x2="507" y1="155" y2="165" stroke="black" stroke-width="1"/>
    <line x1="513" x2="513" y1="155" y2="165" stroke="black" stroke-width="1"/>
    <line x1="5" x2="15" y1="60" y2="60" stroke="black" stroke-width="1"/>
    <text x="0" y="75">
        1
    </text>
    <text x="15" y="178">
        0
    </text>
    <text x="105" y="178">
        1
    </text>
    <text x="205" y="178">
        2
    </text>
    <text x="305" y="178">
        3
    </text>
    <text x="405" y="178">
        4
    </text>
    <text x="505" y="178">
        5
    </text>
</svg>
